<?xml version="1.0" encoding="UTF-8"?>
<svg xmlns="http://www.w3.org/2000/svg" xmlns:xlink="http://www.w3.org/1999/xlink" viewBox="0 0 32 32" width="32px" height="32px">
<g id="surface38893748">
<path style=" stroke:none;fill-rule:nonzero;fill:rgb(52.156866%,6.27451%,7.058824%);fill-opacity:1;" d="M 1.921875 5.121094 C 1.457031 5.113281 1.027344 5.355469 0.796875 5.753906 C 0.5625 6.152344 0.5625 6.648438 0.796875 7.046875 C 1.027344 7.445312 1.457031 7.6875 1.921875 7.679688 L 30.078125 7.679688 C 30.542969 7.6875 30.972656 7.445312 31.203125 7.046875 C 31.4375 6.648438 31.4375 6.152344 31.203125 5.753906 C 30.972656 5.355469 30.542969 5.113281 30.078125 5.121094 Z M 1.921875 14.71875 C 1.457031 14.714844 1.027344 14.957031 0.796875 15.355469 C 0.5625 15.753906 0.5625 16.246094 0.796875 16.644531 C 1.027344 17.042969 1.457031 17.285156 1.921875 17.28125 L 30.078125 17.28125 C 30.542969 17.285156 30.972656 17.042969 31.203125 16.644531 C 31.4375 16.246094 31.4375 15.753906 31.203125 15.355469 C 30.972656 14.957031 30.542969 14.714844 30.078125 14.71875 Z M 1.921875 24.320312 C 1.457031 24.3125 1.027344 24.554688 0.796875 24.953125 C 0.5625 25.351562 0.5625 25.847656 0.796875 26.246094 C 1.027344 26.644531 1.457031 26.886719 1.921875 26.878906 L 30.078125 26.878906 C 30.542969 26.886719 30.972656 26.644531 31.203125 26.246094 C 31.4375 25.847656 31.4375 25.351562 31.203125 24.953125 C 30.972656 24.554688 30.542969 24.3125 30.078125 24.320312 Z M 1.921875 24.320312 "/>
</g>
</svg>
